<?xml version="1.0" encoding="UTF-8" standalone="no"?>
<!-- Generator: Adobe Illustrator 19.0.0, SVG Export Plug-In . SVG Version: 6.00 Build 0)  -->

<svg
   xmlns:dc="http://purl.org/dc/elements/1.1/"
   xmlns:cc="http://creativecommons.org/ns#"
   xmlns:rdf="http://www.w3.org/1999/02/22-rdf-syntax-ns#"
   xmlns:svg="http://www.w3.org/2000/svg"
   xmlns="http://www.w3.org/2000/svg"
   xmlns:sodipodi="http://sodipodi.sourceforge.net/DTD/sodipodi-0.dtd"
   xmlns:inkscape="http://www.inkscape.org/namespaces/inkscape"
   version="1.1"
   id="Capa_1"
   x="0px"
   y="0px"
   viewBox="0 0 512 512"
   style="enable-background:new 0 0 512 512;"
   xml:space="preserve"
   sodipodi:docname="layers.svg"
   inkscape:version="0.92.4 (5da689c313, 2019-01-14)"><metadata
   id="metadata55"><rdf:RDF><cc:Work
       rdf:about=""><dc:format>image/svg+xml</dc:format><dc:type
         rdf:resource="http://purl.org/dc/dcmitype/StillImage" /></cc:Work></rdf:RDF></metadata><defs
   id="defs53" /><sodipodi:namedview
   pagecolor="#ffffff"
   bordercolor="#666666"
   borderopacity="1"
   objecttolerance="10"
   gridtolerance="10"
   guidetolerance="10"
   inkscape:pageopacity="0"
   inkscape:pageshadow="2"
   inkscape:window-width="1366"
   inkscape:window-height="705"
   id="namedview51"
   showgrid="false"
   inkscape:zoom="0.4609375"
   inkscape:cx="-32.542373"
   inkscape:cy="256"
   inkscape:window-x="-8"
   inkscape:window-y="-8"
   inkscape:window-maximized="1"
   inkscape:current-layer="Capa_1" />
<g
   id="g6"
   style="fill:#f2f2f2">
	<g
   id="g4"
   style="fill:#f2f2f2">
		<path
   d="M504.954,153.285l-241-151c-4.863-3.047-11.045-3.047-15.908,0l-241,151C2.666,156.024,0,160.829,0,166    s2.666,9.976,7.046,12.715l241,150c2.432,1.523,5.2,2.285,7.954,2.285c2.754,0,5.522-0.762,7.954-2.285l241-150    c4.38-2.739,7.046-7.544,7.046-12.715C512,160.829,509.334,156.024,504.954,153.285z"
   id="path2"
   style="fill:#f2f2f2" />
	</g>
</g>
<g
   id="g12"
   style="fill:#f2f2f2">
	<g
   id="g10"
   style="fill:#f2f2f2">
		<path
   d="M504.954,243.285l-23.357-14.599l-201.75,125.473C272.714,358.627,264.452,361,256,361    c-8.452,0-16.714-2.373-23.877-6.855L30.399,228.69L7.046,243.285C2.666,246.024,0,250.829,0,256s2.666,9.976,7.046,12.715    l241,150c2.432,1.523,5.2,2.285,7.954,2.285c2.754,0,5.522-0.762,7.954-2.285l241-150c4.38-2.739,7.046-7.544,7.046-12.715    C512,250.829,509.334,246.024,504.954,243.285z"
   id="path8"
   style="fill:#f2f2f2" />
	</g>
</g>
<g
   id="g18"
   style="fill:#f2f2f2">
	<g
   id="g16"
   style="fill:#f2f2f2">
		<path
   d="M504.954,333.285l-23.357-14.599l-201.75,125.473C272.714,448.627,264.452,451,256,451    c-8.452,0-16.714-2.373-23.877-6.855L30.399,318.69L7.046,333.285C2.666,336.024,0,340.829,0,346    c0,5.171,2.666,9.976,7.046,12.715l241,151c2.432,1.523,5.2,2.285,7.954,2.285c2.754,0,5.522-0.762,7.954-2.285l241-151    c4.38-2.739,7.046-7.544,7.046-12.715C512,340.829,509.334,336.024,504.954,333.285z"
   id="path14"
   style="fill:#f2f2f2" />
	</g>
</g>
<g
   id="g20">
</g>
<g
   id="g22">
</g>
<g
   id="g24">
</g>
<g
   id="g26">
</g>
<g
   id="g28">
</g>
<g
   id="g30">
</g>
<g
   id="g32">
</g>
<g
   id="g34">
</g>
<g
   id="g36">
</g>
<g
   id="g38">
</g>
<g
   id="g40">
</g>
<g
   id="g42">
</g>
<g
   id="g44">
</g>
<g
   id="g46">
</g>
<g
   id="g48">
</g>
</svg>