<?xml version="1.0" encoding="UTF-8" standalone="no"?>
<!-- Generator: Gravit.io -->

<svg
   xmlns:dc="http://purl.org/dc/elements/1.1/"
   xmlns:cc="http://creativecommons.org/ns#"
   xmlns:rdf="http://www.w3.org/1999/02/22-rdf-syntax-ns#"
   xmlns:svg="http://www.w3.org/2000/svg"
   xmlns="http://www.w3.org/2000/svg"
   xmlns:sodipodi="http://sodipodi.sourceforge.net/DTD/sodipodi-0.dtd"
   xmlns:inkscape="http://www.inkscape.org/namespaces/inkscape"
   style="isolation:isolate"
   viewBox="0 0 406 50"
   width="406"
   height="50"
   version="1.1"
   id="svg72"
   sodipodi:docname="logo.svg"
   inkscape:export-filename="C:\wamp\www\brunocriacoes\disc\logo\logo-site.png"
   inkscape:export-xdpi="74"
   inkscape:export-ydpi="74"
   inkscape:version="0.92.3 (2405546, 2018-03-11)">
  <metadata
     id="metadata76">
    <rdf:RDF>
      <cc:Work
         rdf:about="">
        <dc:format>image/svg+xml</dc:format>
        <dc:type
           rdf:resource="http://purl.org/dc/dcmitype/StillImage" />
        <dc:title></dc:title>
      </cc:Work>
    </rdf:RDF>
  </metadata>
  <sodipodi:namedview
     pagecolor="#ffffff"
     bordercolor="#666666"
     borderopacity="1"
     objecttolerance="10"
     gridtolerance="10"
     guidetolerance="10"
     inkscape:pageopacity="0"
     inkscape:pageshadow="2"
     inkscape:window-width="1366"
     inkscape:window-height="705"
     id="namedview74"
     showgrid="false"
     inkscape:zoom="1.4528093"
     inkscape:cx="204.57258"
     inkscape:cy="-26.892201"
     inkscape:window-x="-8"
     inkscape:window-y="-8"
     inkscape:window-maximized="1"
     inkscape:current-layer="svg72" />
  <defs
     id="defs5">
    <clipPath
       id="_clipPath_Q8Zf3YRyL1i0GRoKLbw8LxSPtnvlxCgb">
      <rect
         width="395"
         height="50"
         id="rect2"
         x="0"
         y="0" />
    </clipPath>
  </defs>
  <path
     style="fill:#cd2027"
     inkscape:connector-curvature="0"
     id="path7"
     d="m 27.592,10.821 c 7.961,2.671 13.704,10.197 13.704,19.053 0,11.087 -9.002,20.089 -20.09,20.089 C 10.119,49.963 1.117,40.961 1.117,29.874 1.117,21.018 6.86,13.492 14.821,10.821 15.494,9.504 16.565,8.423 17.874,7.735 16.704,7.389 15.603,6.754 14.681,5.832 13.094,4.245 12.358,2.127 12.472,0.048 c 2.079,-0.114 4.197,0.622 5.784,2.209 1.311,1.311 2.041,2.984 2.19,4.698 0.249,-0.027 0.503,-0.041 0.76,-0.041 0.257,0 0.511,0.014 0.761,0.041 0.149,-1.714 0.879,-3.387 2.19,-4.698 1.587,-1.587 3.704,-2.323 5.783,-2.209 0.115,2.079 -0.621,4.197 -2.208,5.784 -0.922,0.922 -2.024,1.557 -3.193,1.903 1.309,0.688 2.379,1.769 3.053,3.086 z" />
  <path
     style="fill:#ffffff"
     d="m 5.421875,24.134766 v 14.347656 h 1.4355469 1.4355469 2.8691402 c 1.912667,0 2.869141,-0.956474 2.869141,-2.869141 v -2.86914 c 0,-0.885166 -0.440002,-1.345716 -1.287109,-1.41211 l -0.0039,-0.0332 c 0.856514,-0.04869 1.291016,-0.520575 1.291016,-1.425781 v -2.869141 c 0,-1.881333 -0.956474,-2.83714 -2.869141,-2.86914 H 8.2929688 6.8574219 Z m 11.478516,0 v 14.347656 h 2.871093 v -5.738281 h 1.433594 c 0.893333,0 1.372214,0.47888 1.435547,1.435547 v 4.302734 h 2.871094 v -5.738281 c 0,-0.940667 -0.47888,-1.419547 -1.435547,-1.435547 0.956667,0 1.435547,-0.47888 1.435547,-1.435547 v -2.869141 c 0,-1.881333 -0.957761,-2.83714 -2.871094,-2.86914 h -2.869141 -1.435546 z m 14.351562,0 c -1.913333,0.032 -2.871094,0.987807 -2.871094,2.86914 v 8.609375 c 0,1.912667 0.957761,2.869141 2.871094,2.869141 h 2.869141 c 1.913333,0 2.86914,-0.956474 2.86914,-2.869141 v -2.86914 h -2.86914 v 1.435547 c -0.064,0.956666 -0.54288,1.433593 -1.435547,1.433593 -0.892667,0 -1.369594,-0.476927 -1.433594,-1.433593 v -5.740235 c 0.064,-0.956667 0.540927,-1.435547 1.433594,-1.435547 0.892667,0 1.371547,0.47888 1.435547,1.435547 v 1.433594 h 2.86914 v -2.869141 c 0,-1.881333 -0.955807,-2.83714 -2.86914,-2.86914 z m -22.9589842,2.86914 h 1.4335937 c 0.8926665,0 1.3715465,0.47888 1.4355465,1.435547 -0.064,0.956667 -0.54288,1.433594 -1.4355465,1.433594 H 8.2929688 Z m 11.4785152,0 h 1.433594 c 0.893333,0 1.372214,0.47888 1.435547,1.435547 -0.06333,0.956667 -0.542214,1.433594 -1.435547,1.433594 H 19.771484 Z M 8.2929688,32.744141 h 1.4335937 c 0.8926665,0 1.3715465,0.47888 1.4355465,1.435547 -0.064,0.956666 -0.54288,1.433593 -1.4355465,1.433593 H 8.2929688 Z"
     id="path10"
     inkscape:connector-curvature="0" />
  <path
     style="fill:#ececec;fill-rule:evenodd"
     inkscape:connector-curvature="0"
     id="path62"
     d="M 59.556,40.067 V 12.095 h 8.705 v 0 q 5.951,0 8.639,1.694 v 0 0 q 2.688,1.693 2.688,5.385 v 0 0 q 0,2.507 -1.177,4.114 v 0 0 q -1.176,1.607 -3.128,1.932 v 0 0.192 0 q 2.66,0.593 3.836,2.219 v 0 0 q 1.177,1.626 1.177,4.324 v 0 0 q 0,3.827 -2.765,5.97 v 0 0 q -2.764,2.142 -7.509,2.142 v 0 z m 5.931,-23.112 v 6.218 h 3.444 v 0 q 2.411,0 3.492,-0.746 v 0 0 q 1.081,-0.746 1.081,-2.468 v 0 0 q 0,-1.607 -1.177,-2.306 v 0 0 q -1.176,-0.698 -3.721,-0.698 v 0 z m 3.674,10.925 h -3.674 v 7.289 h 3.865 v 0 q 2.449,0 3.616,-0.937 v 0 0 q 1.167,-0.938 1.167,-2.87 v 0 0 q 0,-3.482 -4.974,-3.482 z M 91.814,16.955 v 7.557 h 1.913 v 0 q 2.813,0 4.152,-0.937 v 0 0 q 1.339,-0.938 1.339,-2.946 v 0 0 q 0,-1.99 -1.368,-2.832 v 0 0 q -1.368,-0.842 -4.238,-0.842 v 0 z m 3.157,12.379 H 91.814 V 40.067 H 85.883 V 12.095 h 8.15 v 0 q 5.702,0 8.438,2.076 v 0 0 q 2.736,2.076 2.736,6.304 v 0 0 q 0,2.469 -1.359,4.391 v 0 0 q -1.358,1.923 -3.845,3.014 v 0 0 q 6.314,9.432 8.227,12.187 v 0 h -6.582 z m 33.635,-17.239 h 5.912 v 18.1 0 q 0,3.099 -1.387,5.434 v 0 0 q -1.387,2.334 -4.008,3.577 v 0 0 q -2.621,1.244 -6.199,1.244 v 0 0 q -5.396,0 -8.38,-2.765 v 0 0 q -2.985,-2.764 -2.985,-7.567 v 0 -18.023 h 5.912 v 17.124 0 q 0,3.234 1.301,4.745 v 0 0 q 1.301,1.512 4.305,1.512 v 0 0 q 2.908,0 4.219,-1.522 v 0 0 q 1.31,-1.521 1.31,-4.773 v 0 z m 37.577,0 v 27.972 h -7.538 l -12.169,-21.16 h -0.172 v 0 q 0.364,5.605 0.364,7.997 v 0 13.163 h -5.3 V 12.095 h 7.481 l 12.149,20.951 h 0.134 v 0 q -0.287,-5.453 -0.287,-7.711 v 0 -13.24 z m 32.43,13.948 v 0 0 q 0,6.945 -3.444,10.676 v 0 0 q -3.444,3.731 -9.872,3.731 v 0 0 q -6.429,0 -9.873,-3.731 v 0 0 Q 171.98,32.988 171.98,26.005 v 0 0 q 0,-6.984 3.454,-10.667 v 0 0 q 3.453,-3.683 9.901,-3.683 v 0 0 q 6.448,0 9.863,3.712 v 0 0 q 3.415,3.712 3.415,10.676 z m -20.415,0 v 0 0 q 0,4.688 1.78,7.06 v 0 0 q 1.779,2.373 5.319,2.373 v 0 0 q 7.098,0 7.098,-9.433 v 0 0 q 0,-9.451 -7.06,-9.451 v 0 0 q -3.54,0 -5.338,2.382 v 0 0 q -1.799,2.382 -1.799,7.069 z" />
  <path
     style="fill:#cd2027;fill-opacity:1;fill-rule:evenodd"
     inkscape:connector-curvature="0"
     id="path64"
     d="m 227.853,17.239 v 0 0 q -2.698,0 -4.209,2.21 v 0 0 q -1.512,2.21 -1.512,6.094 v 0 0 q 0,8.074 6.142,8.074 v 0 0 q 1.856,0 3.597,-0.516 v 0 0 q 1.741,-0.517 3.501,-1.244 v 0 6.39 0 q -3.501,1.55 -7.921,1.55 v 0 0 q -6.333,0 -9.71,-3.673 v 0 0 q -3.377,-3.674 -3.377,-10.619 v 0 0 q 0,-4.343 1.636,-7.634 v 0 0 q 1.636,-3.291 4.707,-5.061 v 0 0 q 3.071,-1.77 7.222,-1.77 v 0 0 q 4.535,0 8.668,1.971 v 0 l -2.315,5.95 v 0 q -1.55,-0.727 -3.1,-1.224 v 0 0 q -1.55,-0.498 -3.329,-0.498 z m 22.443,11.997 h -1.914 v 10.178 h -7.557 V 11.442 h 9.165 v 0 q 11.403,0 11.403,8.266 v 0 0 q 0,4.859 -4.745,7.519 v 0 l 8.15,12.187 h -8.571 z m -1.914,-12.073 v 6.39 h 1.416 v 0 q 3.961,0 3.961,-3.501 v 0 0 q 0,-2.889 -3.884,-2.889 v 0 z m 26.557,-0.038 V 28.88 39.414 h -7.596 V 11.442 h 7.596 z m 31.473,22.289 h -8.265 l -1.378,-5.242 h -9.088 l -1.416,5.242 h -8.303 l 9.126,-28.087 h 10.083 z M 289.25,27.973 h 5.95 l -1.205,-4.592 v 0 q -0.421,-1.531 -1.024,-3.96 v 0 0 q -0.602,-2.43 -0.794,-3.483 v 0 0 q -0.172,0.976 -0.679,3.215 v 0 0 q -0.507,2.238 -2.248,8.82 z m 32.64,-10.734 v 0 0 q -2.697,0 -4.209,2.21 v 0 0 q -1.511,2.21 -1.511,6.094 v 0 0 q 0,8.074 6.141,8.074 v 0 0 q 1.856,0 3.597,-0.516 v 0 0 q 1.741,-0.517 3.502,-1.244 v 0 6.39 0 q -3.502,1.55 -7.921,1.55 v 0 0 q -6.333,0 -9.71,-3.673 v 0 0 q -3.377,-3.674 -3.377,-10.619 v 0 0 q 0,-4.343 1.636,-7.634 v 0 0 q 1.636,-3.291 4.706,-5.061 v 0 0 q 3.071,-1.77 7.223,-1.77 v 0 0 q 4.534,0 8.667,1.971 v 0 l -2.315,5.95 v 0 q -1.55,-0.727 -3.099,-1.224 v 0 0 q -1.55,-0.498 -3.33,-0.498 z m 2.966,26.997 v 0 0 q 0,2.085 -1.435,3.338 v 0 0 q -1.435,1.254 -3.807,1.254 v 0 0 q -2.602,0 -4.076,-0.555 v 0 -3.922 0 q 1.588,0.516 2.813,0.516 v 0 0 q 0.995,0 0.995,-0.899 v 0 0 q 0,-0.631 -0.785,-1.119 v 0 0 q -0.784,-0.488 -2.047,-0.775 v 0 l 1.378,-2.66 h 3.884 l -0.173,0.555 v 0 q 1.837,0.746 2.545,1.77 v 0 0 q 0.708,1.024 0.708,2.497 z m 36.18,-18.846 v 0 0 q 0,7.06 -3.463,10.734 v 0 0 q -3.463,3.673 -10.14,3.673 v 0 0 q -6.582,0 -10.093,-3.693 v 0 0 q -3.511,-3.692 -3.511,-10.752 v 0 0 q 0,-6.984 3.492,-10.667 v 0 0 q 3.492,-3.683 10.15,-3.683 v 0 0 q 6.677,0 10.121,3.655 v 0 0 q 3.444,3.654 3.444,10.733 z m -19.247,0 v 0 0 q 0,8.112 5.644,8.112 v 0 0 q 2.87,0 4.257,-1.97 v 0 0 q 1.387,-1.971 1.387,-6.142 v 0 0 q 0,-4.19 -1.406,-6.189 v 0 0 q -1.407,-2 -4.2,-2 v 0 0 q -5.682,0 -5.682,8.189 z m 9.126,-16.148 v 0 0 q -0.861,0 -1.732,-0.287 v 0 0 q -0.87,-0.287 -1.712,-0.631 v 0 0 q -0.842,-0.345 -1.636,-0.632 v 0 0 q -0.794,-0.287 -1.502,-0.287 v 0 0 q -1.033,0 -1.377,1.875 v 0 h -3.444 v 0 q 0.21,-3.348 1.377,-4.946 v 0 0 q 1.167,-1.597 3.444,-1.597 v 0 0 q 0.727,0 1.55,0.287 v 0 0 q 0.823,0.287 1.665,0.631 v 0 0 q 0.841,0.345 1.664,0.632 v 0 0 q 0.823,0.287 1.55,0.287 v 0 0 q 0.555,0 0.88,-0.479 v 0 0 q 0.325,-0.478 0.497,-1.396 v 0 h 3.483 v 0 q -0.211,3.195 -1.416,4.869 v 0 0 Q 353,9.242 350.915,9.242 Z m 31.779,24.012 v 6.16 H 366.087 V 11.442 h 16.607 v 6.065 h -9.049 v 4.401 h 8.38 v 6.065 h -8.38 v 5.281 z m 23.189,-2.335 v 0 0 q 0,2.602 -1.32,4.621 v 0 0 q -1.32,2.018 -3.807,3.138 v 0 0 q -2.488,1.119 -5.836,1.119 v 0 0 q -2.793,0 -4.687,-0.392 v 0 0 q -1.894,-0.392 -3.942,-1.368 v 0 -6.735 0 q 2.162,1.11 4.497,1.732 v 0 0 q 2.334,0.621 4.285,0.621 v 0 0 q 1.684,0 2.468,-0.583 v 0 0 q 0.785,-0.584 0.785,-1.502 v 0 0 q 0,-0.574 -0.316,-1.005 v 0 0 q -0.316,-0.43 -1.014,-0.87 v 0 0 q -0.698,-0.44 -3.721,-1.799 v 0 0 q -2.736,-1.243 -4.104,-2.41 v 0 0 q -1.368,-1.167 -2.028,-2.679 v 0 0 q -0.66,-1.511 -0.66,-3.578 v 0 0 q 0,-3.865 2.812,-6.027 v 0 0 q 2.813,-2.162 7.73,-2.162 v 0 0 q 4.343,0 8.858,2.009 v 0 l -2.315,5.836 v 0 q -3.922,-1.799 -6.773,-1.799 v 0 0 q -1.473,0 -2.143,0.517 v 0 0 q -0.669,0.517 -0.669,1.282 v 0 0 q 0,0.823 0.851,1.473 v 0 0 q 0.852,0.651 4.621,2.373 v 0 0 q 3.616,1.626 5.022,3.491 v 0 0 q 1.406,1.866 1.406,4.697 z" />
</svg>
